<svg width="1435" height="738" xmlns="http://www.w3.org/2000/svg"><g><path d="M-51,-36L-68,68L17,72Z" fill="transparent" stroke="#000000" fill-opacity="1" stroke-opacity="0.02"/><path d="M-51,-36L17,72L69,-89Z" fill="transparent" stroke="#000000" fill-opacity="1" stroke-opacity="0.02"/><path d="M69,-89L17,72L156,91Z" fill="transparent" stroke="#000000" fill-opacity="1" stroke-opacity="0.02"/><path d="M69,-89L156,91L196,-63Z" fill="transparent" stroke="#000000" fill-opacity="1" stroke-opacity="0.02"/><path d="M69,-89L196,-63L293,-63Z" fill="transparent" stroke="#000000" fill-opacity="1" stroke-opacity="0.02"/><path d="M69,-89L293,-63L681,-80Z" fill="transparent" stroke="#000000" fill-opacity="1" stroke-opacity="0.02"/><path d="M69,-89L681,-80L845,-88Z" fill="transparent" stroke="#000000" fill-opacity="1" stroke-opacity="0.02"/><path d="M69,-89L845,-88L937,-93Z" fill="transparent" stroke="#000000" fill-opacity="1" stroke-opacity="0.02"/><path d="M196,-63L156,91L312,18Z" fill="transparent" stroke="#000000" fill-opacity="1" stroke-opacity="0.02"/><path d="M196,-63L312,18L293,-63Z" fill="transparent" stroke="#000000" fill-opacity="1" stroke-opacity="0.02"/><path d="M293,-63L312,18L366,-45Z" fill="transparent" stroke="#000000" fill-opacity="1" stroke-opacity="0.02"/><path d="M293,-63L366,-45L585,-68Z" fill="transparent" stroke="#000000" fill-opacity="1" stroke-opacity="0.02"/><path d="M293,-63L585,-68L681,-80Z" fill="transparent" stroke="#000000" fill-opacity="1" stroke-opacity="0.02"/><path d="M366,-45L312,18L347,46Z" fill="transparent" stroke="#000000" fill-opacity="1" stroke-opacity="0.02"/><path d="M366,-45L347,46L480,68Z" fill="transparent" stroke="#000000" fill-opacity="1" stroke-opacity="0.02"/><path d="M366,-45L480,68L493,-26Z" fill="transparent" stroke="#000000" fill-opacity="1" stroke-opacity="0.02"/><path d="M366,-45L493,-26L585,-68Z" fill="transparent" stroke="#000000" fill-opacity="1" stroke-opacity="0.02"/><path d="M493,-26L480,68L569,22Z" fill="transparent" stroke="#000000" fill-opacity="1" stroke-opacity="0.02"/><path d="M493,-26L569,22L585,-68Z" fill="transparent" stroke="#000000" fill-opacity="1" stroke-opacity="0.02"/><path d="M585,-68L569,22L681,-80Z" fill="transparent" stroke="#000000" fill-opacity="1" stroke-opacity="0.02"/><path d="M681,-80L569,22L681,61Z" fill="transparent" stroke="#000000" fill-opacity="1" stroke-opacity="0.02"/><path d="M681,-80L681,61L845,-88Z" fill="transparent" stroke="#000000" fill-opacity="1" stroke-opacity="0.02"/><path d="M845,-88L681,61L847,91Z" fill="transparent" stroke="#000000" fill-opacity="1" stroke-opacity="0.02"/><path d="M845,-88L847,91L937,-93Z" fill="transparent" stroke="#000000" fill-opacity="1" stroke-opacity="0.02"/><path d="M937,-93L847,91L955,93Z" fill="transparent" stroke="#000000" fill-opacity="1" stroke-opacity="0.02"/><path d="M937,-93L955,93L1016,66Z" fill="transparent" stroke="#000000" fill-opacity="1" stroke-opacity="0.02"/><path d="M937,-93L1016,66L1014,-93Z" fill="transparent" stroke="#000000" fill-opacity="1" stroke-opacity="0.02"/><path d="M1014,-93L1016,66L1167,43Z" fill="transparent" stroke="#000000" fill-opacity="1" stroke-opacity="0.02"/><path d="M1014,-93L1167,43L1190,-22Z" fill="transparent" stroke="#000000" fill-opacity="1" stroke-opacity="0.02"/><path d="M1014,-93L1190,-22L1401,-58Z" fill="transparent" stroke="#000000" fill-opacity="1" stroke-opacity="0.02"/><path d="M1014,-93L1401,-58L1449,-67Z" fill="transparent" stroke="#000000" fill-opacity="1" stroke-opacity="0.02"/><path d="M1190,-22L1167,43L1241,66Z" fill="transparent" stroke="#000000" fill-opacity="1" stroke-opacity="0.02"/><path d="M1190,-22L1241,66L1302,-19Z" fill="transparent" stroke="#000000" fill-opacity="1" stroke-opacity="0.02"/><path d="M1190,-22L1302,-19L1401,-58Z" fill="transparent" stroke="#000000" fill-opacity="1" stroke-opacity="0.02"/><path d="M1302,-19L1241,66L1397,89Z" fill="transparent" stroke="#000000" fill-opacity="1" stroke-opacity="0.02"/><path d="M1302,-19L1397,89L1401,-58Z" fill="transparent" stroke="#000000" fill-opacity="1" stroke-opacity="0.02"/><path d="M1401,-58L1397,89L1449,-67Z" fill="transparent" stroke="#000000" fill-opacity="1" stroke-opacity="0.02"/><path d="M1449,-67L1397,89L1518,71Z" fill="transparent" stroke="#000000" fill-opacity="1" stroke-opacity="0.02"/><path d="M1449,-67L1518,71L1620,-39Z" fill="transparent" stroke="#000000" fill-opacity="1" stroke-opacity="0.02"/><path d="M1620,-39L1518,71L1564,81Z" fill="transparent" stroke="#000000" fill-opacity="1" stroke-opacity="0.02"/><path d="M1620,-39L1564,81L1622,186Z" fill="transparent" stroke="#000000" fill-opacity="1" stroke-opacity="0.02"/><path d="M-68,68L-81,349L-57,244Z" fill="transparent" stroke="#000000" fill-opacity="1" stroke-opacity="0.02"/><path d="M-68,68L-57,244L-27,126Z" fill="transparent" stroke="#000000" fill-opacity="1" stroke-opacity="0.02"/><path d="M-68,68L-27,126L17,72Z" fill="transparent" stroke="#000000" fill-opacity="1" stroke-opacity="0.02"/><path d="M17,72L-27,126L27,128Z" fill="transparent" stroke="#000000" fill-opacity="1" stroke-opacity="0.02"/><path d="M17,72L27,128L127,143Z" fill="transparent" stroke="#000000" fill-opacity="1" stroke-opacity="0.02"/><path d="M17,72L127,143L156,91Z" fill="transparent" stroke="#000000" fill-opacity="1" stroke-opacity="0.02"/><path d="M156,91L127,143L291,144Z" fill="transparent" stroke="#000000" fill-opacity="1" stroke-opacity="0.02"/><path d="M156,91L291,144L312,18Z" fill="transparent" stroke="#000000" fill-opacity="1" stroke-opacity="0.02"/><path d="M312,18L291,144L347,46Z" fill="transparent" stroke="#000000" fill-opacity="1" stroke-opacity="0.02"/><path d="M347,46L291,144L374,157Z" fill="transparent" stroke="#000000" fill-opacity="1" stroke-opacity="0.02"/><path d="M347,46L374,157L480,68Z" fill="transparent" stroke="#000000" fill-opacity="1" stroke-opacity="0.02"/><path d="M480,68L374,157L477,159Z" fill="transparent" stroke="#000000" fill-opacity="1" stroke-opacity="0.02"/><path d="M480,68L477,159L574,189Z" fill="transparent" stroke="#000000" fill-opacity="1" stroke-opacity="0.02"/><path d="M480,68L574,189L569,22Z" fill="transparent" stroke="#000000" fill-opacity="1" stroke-opacity="0.02"/><path d="M569,22L574,189L681,61Z" fill="transparent" stroke="#000000" fill-opacity="1" stroke-opacity="0.02"/><path d="M681,61L574,189L744,192Z" fill="transparent" stroke="#000000" fill-opacity="1" stroke-opacity="0.02"/><path d="M681,61L744,192L799,181Z" fill="transparent" stroke="#000000" fill-opacity="1" stroke-opacity="0.02"/><path d="M681,61L799,181L847,91Z" fill="transparent" stroke="#000000" fill-opacity="1" stroke-opacity="0.02"/><path d="M847,91L799,181L960,148Z" fill="transparent" stroke="#000000" fill-opacity="1" stroke-opacity="0.02"/><path d="M847,91L960,148L955,93Z" fill="transparent" stroke="#000000" fill-opacity="1" stroke-opacity="0.02"/><path d="M955,93L960,148L1016,66Z" fill="transparent" stroke="#000000" fill-opacity="1" stroke-opacity="0.02"/><path d="M1016,66L960,148L1066,176Z" fill="transparent" stroke="#000000" fill-opacity="1" stroke-opacity="0.02"/><path d="M1016,66L1066,176L1160,133Z" fill="transparent" stroke="#000000" fill-opacity="1" stroke-opacity="0.02"/><path d="M1016,66L1160,133L1167,43Z" fill="transparent" stroke="#000000" fill-opacity="1" stroke-opacity="0.02"/><path d="M1167,43L1160,133L1241,66Z" fill="transparent" stroke="#000000" fill-opacity="1" stroke-opacity="0.02"/><path d="M1241,66L1160,133L1233,146Z" fill="transparent" stroke="#000000" fill-opacity="1" stroke-opacity="0.02"/><path d="M1241,66L1233,146L1347,161Z" fill="transparent" stroke="#000000" fill-opacity="1" stroke-opacity="0.02"/><path d="M1241,66L1347,161L1397,89Z" fill="transparent" stroke="#000000" fill-opacity="1" stroke-opacity="0.02"/><path d="M1397,89L1347,161L1457,148Z" fill="transparent" stroke="#000000" fill-opacity="1" stroke-opacity="0.02"/><path d="M1397,89L1457,148L1518,71Z" fill="transparent" stroke="#000000" fill-opacity="1" stroke-opacity="0.02"/><path d="M1518,71L1457,148L1564,81Z" fill="transparent" stroke="#000000" fill-opacity="1" stroke-opacity="0.02"/><path d="M1564,81L1457,148L1622,186Z" fill="transparent" stroke="#000000" fill-opacity="1" stroke-opacity="0.02"/><path d="M-27,126L-57,244L27,128Z" fill="transparent" stroke="#000000" fill-opacity="1" stroke-opacity="0.02"/><path d="M27,128L-57,244L64,301Z" fill="transparent" stroke="#000000" fill-opacity="1" stroke-opacity="0.02"/><path d="M27,128L64,301L127,143Z" fill="transparent" stroke="#000000" fill-opacity="1" stroke-opacity="0.02"/><path d="M127,143L64,301L145,306Z" fill="transparent" stroke="#000000" fill-opacity="1" stroke-opacity="0.02"/><path d="M127,143L145,306L237,297Z" fill="transparent" stroke="#000000" fill-opacity="1" stroke-opacity="0.02"/><path d="M127,143L237,297L291,144Z" fill="transparent" stroke="#000000" fill-opacity="1" stroke-opacity="0.02"/><path d="M291,144L237,297L365,282Z" fill="transparent" stroke="#000000" fill-opacity="1" stroke-opacity="0.02"/><path d="M291,144L365,282L374,157Z" fill="transparent" stroke="#000000" fill-opacity="1" stroke-opacity="0.02"/><path d="M374,157L365,282L477,159Z" fill="transparent" stroke="#000000" fill-opacity="1" stroke-opacity="0.02"/><path d="M477,159L365,282L463,310Z" fill="transparent" stroke="#000000" fill-opacity="1" stroke-opacity="0.02"/><path d="M477,159L463,310L574,189Z" fill="transparent" stroke="#000000" fill-opacity="1" stroke-opacity="0.02"/><path d="M574,189L463,310L597,280Z" fill="transparent" stroke="#000000" fill-opacity="1" stroke-opacity="0.02"/><path d="M574,189L597,280L744,192Z" fill="transparent" stroke="#000000" fill-opacity="1" stroke-opacity="0.02"/><path d="M744,192L597,280L698,308Z" fill="transparent" stroke="#000000" fill-opacity="1" stroke-opacity="0.02"/><path d="M744,192L698,308L858,260Z" fill="transparent" stroke="#000000" fill-opacity="1" stroke-opacity="0.02"/><path d="M744,192L858,260L799,181Z" fill="transparent" stroke="#000000" fill-opacity="1" stroke-opacity="0.02"/><path d="M799,181L858,260L903,247Z" fill="transparent" stroke="#000000" fill-opacity="1" stroke-opacity="0.02"/><path d="M799,181L903,247L960,148Z" fill="transparent" stroke="#000000" fill-opacity="1" stroke-opacity="0.02"/><path d="M960,148L903,247L1083,251Z" fill="transparent" stroke="#000000" fill-opacity="1" stroke-opacity="0.02"/><path d="M960,148L1083,251L1066,176Z" fill="transparent" stroke="#000000" fill-opacity="1" stroke-opacity="0.02"/><path d="M1066,176L1083,251L1157,246Z" fill="transparent" stroke="#000000" fill-opacity="1" stroke-opacity="0.02"/><path d="M1066,176L1157,246L1160,133Z" fill="transparent" stroke="#000000" fill-opacity="1" stroke-opacity="0.02"/><path d="M1160,133L1157,246L1233,146Z" fill="transparent" stroke="#000000" fill-opacity="1" stroke-opacity="0.02"/><path d="M1233,146L1157,246L1283,313Z" fill="transparent" stroke="#000000" fill-opacity="1" stroke-opacity="0.02"/><path d="M1233,146L1283,313L1347,161Z" fill="transparent" stroke="#000000" fill-opacity="1" stroke-opacity="0.02"/><path d="M1347,161L1283,313L1369,302Z" fill="transparent" stroke="#000000" fill-opacity="1" stroke-opacity="0.02"/><path d="M1347,161L1369,302L1445,244Z" fill="transparent" stroke="#000000" fill-opacity="1" stroke-opacity="0.02"/><path d="M1347,161L1445,244L1457,148Z" fill="transparent" stroke="#000000" fill-opacity="1" stroke-opacity="0.02"/><path d="M1457,148L1445,244L1572,242Z" fill="transparent" stroke="#000000" fill-opacity="1" stroke-opacity="0.02"/><path d="M1457,148L1572,242L1622,186Z" fill="transparent" stroke="#000000" fill-opacity="1" stroke-opacity="0.02"/><path d="M1622,186L1572,242L1620,403Z" fill="transparent" stroke="#000000" fill-opacity="1" stroke-opacity="0.02"/><path d="M1622,186L1620,403L1624,854Z" fill="transparent" stroke="#000000" fill-opacity="1" stroke-opacity="0.02"/><path d="M-57,244L-81,349L64,301Z" fill="transparent" stroke="#000000" fill-opacity="1" stroke-opacity="0.02"/><path d="M64,301L-81,349L33,404Z" fill="transparent" stroke="#000000" fill-opacity="1" stroke-opacity="0.02"/><path d="M64,301L33,404L145,306Z" fill="transparent" stroke="#000000" fill-opacity="1" stroke-opacity="0.02"/><path d="M145,306L33,404L185,370Z" fill="transparent" stroke="#000000" fill-opacity="1" stroke-opacity="0.02"/><path d="M145,306L185,370L237,297Z" fill="transparent" stroke="#000000" fill-opacity="1" stroke-opacity="0.02"/><path d="M237,297L185,370L250,354Z" fill="transparent" stroke="#000000" fill-opacity="1" stroke-opacity="0.02"/><path d="M237,297L250,354L365,282Z" fill="transparent" stroke="#000000" fill-opacity="1" stroke-opacity="0.02"/><path d="M365,282L250,354L375,415Z" fill="transparent" stroke="#000000" fill-opacity="1" stroke-opacity="0.02"/><path d="M365,282L375,415L463,310Z" fill="transparent" stroke="#000000" fill-opacity="1" stroke-opacity="0.02"/><path d="M463,310L375,415L504,402Z" fill="transparent" stroke="#000000" fill-opacity="1" stroke-opacity="0.02"/><path d="M463,310L504,402L597,280Z" fill="transparent" stroke="#000000" fill-opacity="1" stroke-opacity="0.02"/><path d="M597,280L504,402L615,381Z" fill="transparent" stroke="#000000" fill-opacity="1" stroke-opacity="0.02"/><path d="M597,280L615,381L698,308Z" fill="transparent" stroke="#000000" fill-opacity="1" stroke-opacity="0.02"/><path d="M698,308L615,381L750,359Z" fill="transparent" stroke="#000000" fill-opacity="1" stroke-opacity="0.02"/><path d="M698,308L750,359L858,260Z" fill="transparent" stroke="#000000" fill-opacity="1" stroke-opacity="0.02"/><path d="M858,260L750,359L857,423Z" fill="transparent" stroke="#000000" fill-opacity="1" stroke-opacity="0.02"/><path d="M858,260L857,423L950,377Z" fill="transparent" stroke="#000000" fill-opacity="1" stroke-opacity="0.02"/><path d="M858,260L950,377L903,247Z" fill="transparent" stroke="#000000" fill-opacity="1" stroke-opacity="0.02"/><path d="M903,247L950,377L1083,251Z" fill="transparent" stroke="#000000" fill-opacity="1" stroke-opacity="0.02"/><path d="M1083,251L950,377L1058,412Z" fill="transparent" stroke="#000000" fill-opacity="1" stroke-opacity="0.02"/><path d="M1083,251L1058,412L1126,376Z" fill="transparent" stroke="#000000" fill-opacity="1" stroke-opacity="0.02"/><path d="M1083,251L1126,376L1157,246Z" fill="transparent" stroke="#000000" fill-opacity="1" stroke-opacity="0.02"/><path d="M1157,246L1126,376L1283,313Z" fill="transparent" stroke="#000000" fill-opacity="1" stroke-opacity="0.02"/><path d="M1283,313L1126,376L1255,421Z" fill="transparent" stroke="#000000" fill-opacity="1" stroke-opacity="0.02"/><path d="M1283,313L1255,421L1396,396Z" fill="transparent" stroke="#000000" fill-opacity="1" stroke-opacity="0.02"/><path d="M1283,313L1396,396L1369,302Z" fill="transparent" stroke="#000000" fill-opacity="1" stroke-opacity="0.02"/><path d="M1369,302L1396,396L1509,380Z" fill="transparent" stroke="#000000" fill-opacity="1" stroke-opacity="0.02"/><path d="M1369,302L1509,380L1445,244Z" fill="transparent" stroke="#000000" fill-opacity="1" stroke-opacity="0.02"/><path d="M1445,244L1509,380L1572,242Z" fill="transparent" stroke="#000000" fill-opacity="1" stroke-opacity="0.02"/><path d="M1572,242L1509,380L1620,403Z" fill="transparent" stroke="#000000" fill-opacity="1" stroke-opacity="0.02"/><path d="M-81,349L-91,568L-47,495Z" fill="transparent" stroke="#000000" fill-opacity="1" stroke-opacity="0.02"/><path d="M-81,349L-47,495L33,404Z" fill="transparent" stroke="#000000" fill-opacity="1" stroke-opacity="0.02"/><path d="M33,404L-47,495L35,492Z" fill="transparent" stroke="#000000" fill-opacity="1" stroke-opacity="0.02"/><path d="M33,404L35,492L202,464Z" fill="transparent" stroke="#000000" fill-opacity="1" stroke-opacity="0.02"/><path d="M33,404L202,464L185,370Z" fill="transparent" stroke="#000000" fill-opacity="1" stroke-opacity="0.02"/><path d="M185,370L202,464L250,354Z" fill="transparent" stroke="#000000" fill-opacity="1" stroke-opacity="0.02"/><path d="M250,354L202,464L276,467Z" fill="transparent" stroke="#000000" fill-opacity="1" stroke-opacity="0.02"/><path d="M250,354L276,467L375,415Z" fill="transparent" stroke="#000000" fill-opacity="1" stroke-opacity="0.02"/><path d="M375,415L276,467L420,466Z" fill="transparent" stroke="#000000" fill-opacity="1" stroke-opacity="0.02"/><path d="M375,415L420,466L504,402Z" fill="transparent" stroke="#000000" fill-opacity="1" stroke-opacity="0.02"/><path d="M504,402L420,466L494,507Z" fill="transparent" stroke="#000000" fill-opacity="1" stroke-opacity="0.02"/><path d="M504,402L494,507L580,483Z" fill="transparent" stroke="#000000" fill-opacity="1" stroke-opacity="0.02"/><path d="M504,402L580,483L615,381Z" fill="transparent" stroke="#000000" fill-opacity="1" stroke-opacity="0.02"/><path d="M615,381L580,483L689,513Z" fill="transparent" stroke="#000000" fill-opacity="1" stroke-opacity="0.02"/><path d="M615,381L689,513L750,359Z" fill="transparent" stroke="#000000" fill-opacity="1" stroke-opacity="0.02"/><path d="M750,359L689,513L849,489Z" fill="transparent" stroke="#000000" fill-opacity="1" stroke-opacity="0.02"/><path d="M750,359L849,489L857,423Z" fill="transparent" stroke="#000000" fill-opacity="1" stroke-opacity="0.02"/><path d="M857,423L849,489L949,466Z" fill="transparent" stroke="#000000" fill-opacity="1" stroke-opacity="0.02"/><path d="M857,423L949,466L950,377Z" fill="transparent" stroke="#000000" fill-opacity="1" stroke-opacity="0.02"/><path d="M950,377L949,466L1058,412Z" fill="transparent" stroke="#000000" fill-opacity="1" stroke-opacity="0.02"/><path d="M1058,412L949,466L1069,474Z" fill="transparent" stroke="#000000" fill-opacity="1" stroke-opacity="0.02"/><path d="M1058,412L1069,474L1126,376Z" fill="transparent" stroke="#000000" fill-opacity="1" stroke-opacity="0.02"/><path d="M1126,376L1069,474L1171,508Z" fill="transparent" stroke="#000000" fill-opacity="1" stroke-opacity="0.02"/><path d="M1126,376L1171,508L1246,464Z" fill="transparent" stroke="#000000" fill-opacity="1" stroke-opacity="0.02"/><path d="M1126,376L1246,464L1255,421Z" fill="transparent" stroke="#000000" fill-opacity="1" stroke-opacity="0.02"/><path d="M1255,421L1246,464L1346,503Z" fill="transparent" stroke="#000000" fill-opacity="1" stroke-opacity="0.02"/><path d="M1255,421L1346,503L1396,396Z" fill="transparent" stroke="#000000" fill-opacity="1" stroke-opacity="0.02"/><path d="M1396,396L1346,503L1452,484Z" fill="transparent" stroke="#000000" fill-opacity="1" stroke-opacity="0.02"/><path d="M1396,396L1452,484L1509,380Z" fill="transparent" stroke="#000000" fill-opacity="1" stroke-opacity="0.02"/><path d="M1509,380L1452,484L1608,497Z" fill="transparent" stroke="#000000" fill-opacity="1" stroke-opacity="0.02"/><path d="M1509,380L1608,497L1620,403Z" fill="transparent" stroke="#000000" fill-opacity="1" stroke-opacity="0.02"/><path d="M1620,403L1608,497L1624,854Z" fill="transparent" stroke="#000000" fill-opacity="1" stroke-opacity="0.02"/><path d="M-47,495L-91,568L58,614Z" fill="transparent" stroke="#000000" fill-opacity="1" stroke-opacity="0.02"/><path d="M-47,495L58,614L35,492Z" fill="transparent" stroke="#000000" fill-opacity="1" stroke-opacity="0.02"/><path d="M35,492L58,614L127,573Z" fill="transparent" stroke="#000000" fill-opacity="1" stroke-opacity="0.02"/><path d="M35,492L127,573L202,464Z" fill="transparent" stroke="#000000" fill-opacity="1" stroke-opacity="0.02"/><path d="M202,464L127,573L315,595Z" fill="transparent" stroke="#000000" fill-opacity="1" stroke-opacity="0.02"/><path d="M202,464L315,595L276,467Z" fill="transparent" stroke="#000000" fill-opacity="1" stroke-opacity="0.02"/><path d="M276,467L315,595L420,466Z" fill="transparent" stroke="#000000" fill-opacity="1" stroke-opacity="0.02"/><path d="M420,466L315,595L375,609Z" fill="transparent" stroke="#000000" fill-opacity="1" stroke-opacity="0.02"/><path d="M420,466L375,609L494,507Z" fill="transparent" stroke="#000000" fill-opacity="1" stroke-opacity="0.02"/><path d="M494,507L375,609L523,566Z" fill="transparent" stroke="#000000" fill-opacity="1" stroke-opacity="0.02"/><path d="M494,507L523,566L580,483Z" fill="transparent" stroke="#000000" fill-opacity="1" stroke-opacity="0.02"/><path d="M580,483L523,566L578,625Z" fill="transparent" stroke="#000000" fill-opacity="1" stroke-opacity="0.02"/><path d="M580,483L578,625L689,513Z" fill="transparent" stroke="#000000" fill-opacity="1" stroke-opacity="0.02"/><path d="M689,513L578,625L742,617Z" fill="transparent" stroke="#000000" fill-opacity="1" stroke-opacity="0.02"/><path d="M689,513L742,617L849,489Z" fill="transparent" stroke="#000000" fill-opacity="1" stroke-opacity="0.02"/><path d="M849,489L742,617L843,598Z" fill="transparent" stroke="#000000" fill-opacity="1" stroke-opacity="0.02"/><path d="M849,489L843,598L910,592Z" fill="transparent" stroke="#000000" fill-opacity="1" stroke-opacity="0.02"/><path d="M849,489L910,592L949,466Z" fill="transparent" stroke="#000000" fill-opacity="1" stroke-opacity="0.02"/><path d="M949,466L910,592L1065,602Z" fill="transparent" stroke="#000000" fill-opacity="1" stroke-opacity="0.02"/><path d="M949,466L1065,602L1069,474Z" fill="transparent" stroke="#000000" fill-opacity="1" stroke-opacity="0.02"/><path d="M1069,474L1065,602L1171,508Z" fill="transparent" stroke="#000000" fill-opacity="1" stroke-opacity="0.02"/><path d="M1171,508L1065,602L1182,599Z" fill="transparent" stroke="#000000" fill-opacity="1" stroke-opacity="0.02"/><path d="M1171,508L1182,599L1276,619Z" fill="transparent" stroke="#000000" fill-opacity="1" stroke-opacity="0.02"/><path d="M1171,508L1276,619L1246,464Z" fill="transparent" stroke="#000000" fill-opacity="1" stroke-opacity="0.02"/><path d="M1246,464L1276,619L1346,503Z" fill="transparent" stroke="#000000" fill-opacity="1" stroke-opacity="0.02"/><path d="M1346,503L1276,619L1363,643Z" fill="transparent" stroke="#000000" fill-opacity="1" stroke-opacity="0.02"/><path d="M1346,503L1363,643L1452,484Z" fill="transparent" stroke="#000000" fill-opacity="1" stroke-opacity="0.02"/><path d="M1452,484L1363,643L1524,608Z" fill="transparent" stroke="#000000" fill-opacity="1" stroke-opacity="0.02"/><path d="M1452,484L1524,608L1608,497Z" fill="transparent" stroke="#000000" fill-opacity="1" stroke-opacity="0.02"/><path d="M1608,497L1524,608L1596,581Z" fill="transparent" stroke="#000000" fill-opacity="1" stroke-opacity="0.02"/><path d="M1608,497L1596,581L1624,854Z" fill="transparent" stroke="#000000" fill-opacity="1" stroke-opacity="0.02"/><path d="M-91,568L-75,683L58,614Z" fill="transparent" stroke="#000000" fill-opacity="1" stroke-opacity="0.02"/><path d="M58,614L-75,683L92,707Z" fill="transparent" stroke="#000000" fill-opacity="1" stroke-opacity="0.02"/><path d="M58,614L92,707L127,573Z" fill="transparent" stroke="#000000" fill-opacity="1" stroke-opacity="0.02"/><path d="M127,573L92,707L202,686Z" fill="transparent" stroke="#000000" fill-opacity="1" stroke-opacity="0.02"/><path d="M127,573L202,686L315,595Z" fill="transparent" stroke="#000000" fill-opacity="1" stroke-opacity="0.02"/><path d="M315,595L202,686L305,689Z" fill="transparent" stroke="#000000" fill-opacity="1" stroke-opacity="0.02"/><path d="M315,595L305,689L375,609Z" fill="transparent" stroke="#000000" fill-opacity="1" stroke-opacity="0.02"/><path d="M375,609L305,689L409,686Z" fill="transparent" stroke="#000000" fill-opacity="1" stroke-opacity="0.02"/><path d="M375,609L409,686L470,696Z" fill="transparent" stroke="#000000" fill-opacity="1" stroke-opacity="0.02"/><path d="M375,609L470,696L523,566Z" fill="transparent" stroke="#000000" fill-opacity="1" stroke-opacity="0.02"/><path d="M523,566L470,696L578,625Z" fill="transparent" stroke="#000000" fill-opacity="1" stroke-opacity="0.02"/><path d="M578,625L470,696L623,753Z" fill="transparent" stroke="#000000" fill-opacity="1" stroke-opacity="0.02"/><path d="M578,625L623,753L749,690Z" fill="transparent" stroke="#000000" fill-opacity="1" stroke-opacity="0.02"/><path d="M578,625L749,690L742,617Z" fill="transparent" stroke="#000000" fill-opacity="1" stroke-opacity="0.02"/><path d="M742,617L749,690L843,598Z" fill="transparent" stroke="#000000" fill-opacity="1" stroke-opacity="0.02"/><path d="M843,598L749,690L865,752Z" fill="transparent" stroke="#000000" fill-opacity="1" stroke-opacity="0.02"/><path d="M843,598L865,752L911,719Z" fill="transparent" stroke="#000000" fill-opacity="1" stroke-opacity="0.02"/><path d="M843,598L911,719L910,592Z" fill="transparent" stroke="#000000" fill-opacity="1" stroke-opacity="0.02"/><path d="M910,592L911,719L1065,602Z" fill="transparent" stroke="#000000" fill-opacity="1" stroke-opacity="0.02"/><path d="M1065,602L911,719L1076,740Z" fill="transparent" stroke="#000000" fill-opacity="1" stroke-opacity="0.02"/><path d="M1065,602L1076,740L1167,681Z" fill="transparent" stroke="#000000" fill-opacity="1" stroke-opacity="0.02"/><path d="M1065,602L1167,681L1182,599Z" fill="transparent" stroke="#000000" fill-opacity="1" stroke-opacity="0.02"/><path d="M1182,599L1167,681L1276,619Z" fill="transparent" stroke="#000000" fill-opacity="1" stroke-opacity="0.02"/><path d="M1276,619L1167,681L1245,736Z" fill="transparent" stroke="#000000" fill-opacity="1" stroke-opacity="0.02"/><path d="M1276,619L1245,736L1337,744Z" fill="transparent" stroke="#000000" fill-opacity="1" stroke-opacity="0.02"/><path d="M1276,619L1337,744L1363,643Z" fill="transparent" stroke="#000000" fill-opacity="1" stroke-opacity="0.02"/><path d="M1363,643L1337,744L1474,712Z" fill="transparent" stroke="#000000" fill-opacity="1" stroke-opacity="0.02"/><path d="M1363,643L1474,712L1524,608Z" fill="transparent" stroke="#000000" fill-opacity="1" stroke-opacity="0.02"/><path d="M1524,608L1474,712L1560,732Z" fill="transparent" stroke="#000000" fill-opacity="1" stroke-opacity="0.02"/><path d="M1524,608L1560,732L1596,581Z" fill="transparent" stroke="#000000" fill-opacity="1" stroke-opacity="0.02"/><path d="M1596,581L1560,732L1624,854Z" fill="transparent" stroke="#000000" fill-opacity="1" stroke-opacity="0.02"/><path d="M-75,683L-20,864L54,793Z" fill="transparent" stroke="#000000" fill-opacity="1" stroke-opacity="0.02"/><path d="M-75,683L54,793L92,707Z" fill="transparent" stroke="#000000" fill-opacity="1" stroke-opacity="0.02"/><path d="M92,707L54,793L137,804Z" fill="transparent" stroke="#000000" fill-opacity="1" stroke-opacity="0.02"/><path d="M92,707L137,804L202,686Z" fill="transparent" stroke="#000000" fill-opacity="1" stroke-opacity="0.02"/><path d="M202,686L137,804L272,865Z" fill="transparent" stroke="#000000" fill-opacity="1" stroke-opacity="0.02"/><path d="M202,686L272,865L305,689Z" fill="transparent" stroke="#000000" fill-opacity="1" stroke-opacity="0.02"/><path d="M305,689L272,865L385,787Z" fill="transparent" stroke="#000000" fill-opacity="1" stroke-opacity="0.02"/><path d="M305,689L385,787L409,686Z" fill="transparent" stroke="#000000" fill-opacity="1" stroke-opacity="0.02"/><path d="M409,686L385,787L470,696Z" fill="transparent" stroke="#000000" fill-opacity="1" stroke-opacity="0.02"/><path d="M470,696L385,787L472,856Z" fill="transparent" stroke="#000000" fill-opacity="1" stroke-opacity="0.02"/><path d="M470,696L472,856L597,805Z" fill="transparent" stroke="#000000" fill-opacity="1" stroke-opacity="0.02"/><path d="M470,696L597,805L623,753Z" fill="transparent" stroke="#000000" fill-opacity="1" stroke-opacity="0.02"/><path d="M623,753L597,805L754,800Z" fill="transparent" stroke="#000000" fill-opacity="1" stroke-opacity="0.02"/><path d="M623,753L754,800L749,690Z" fill="transparent" stroke="#000000" fill-opacity="1" stroke-opacity="0.02"/><path d="M749,690L754,800L865,752Z" fill="transparent" stroke="#000000" fill-opacity="1" stroke-opacity="0.02"/><path d="M865,752L754,800L822,809Z" fill="transparent" stroke="#000000" fill-opacity="1" stroke-opacity="0.02"/><path d="M865,752L822,809L927,860Z" fill="transparent" stroke="#000000" fill-opacity="1" stroke-opacity="0.02"/><path d="M865,752L927,860L911,719Z" fill="transparent" stroke="#000000" fill-opacity="1" stroke-opacity="0.02"/><path d="M911,719L927,860L1076,740Z" fill="transparent" stroke="#000000" fill-opacity="1" stroke-opacity="0.02"/><path d="M1076,740L927,860L1065,858Z" fill="transparent" stroke="#000000" fill-opacity="1" stroke-opacity="0.02"/><path d="M1076,740L1065,858L1172,823Z" fill="transparent" stroke="#000000" fill-opacity="1" stroke-opacity="0.02"/><path d="M1076,740L1172,823L1167,681Z" fill="transparent" stroke="#000000" fill-opacity="1" stroke-opacity="0.02"/><path d="M1167,681L1172,823L1245,736Z" fill="transparent" stroke="#000000" fill-opacity="1" stroke-opacity="0.02"/><path d="M1245,736L1172,823L1257,797Z" fill="transparent" stroke="#000000" fill-opacity="1" stroke-opacity="0.02"/><path d="M1245,736L1257,797L1337,744Z" fill="transparent" stroke="#000000" fill-opacity="1" stroke-opacity="0.02"/><path d="M1337,744L1257,797L1386,825Z" fill="transparent" stroke="#000000" fill-opacity="1" stroke-opacity="0.02"/><path d="M1337,744L1386,825L1469,789Z" fill="transparent" stroke="#000000" fill-opacity="1" stroke-opacity="0.02"/><path d="M1337,744L1469,789L1474,712Z" fill="transparent" stroke="#000000" fill-opacity="1" stroke-opacity="0.02"/><path d="M1474,712L1469,789L1560,732Z" fill="transparent" stroke="#000000" fill-opacity="1" stroke-opacity="0.02"/><path d="M1560,732L1469,789L1624,854Z" fill="transparent" stroke="#000000" fill-opacity="1" stroke-opacity="0.02"/><path d="M-20,864L272,865L137,804Z" fill="transparent" stroke="#000000" fill-opacity="1" stroke-opacity="0.02"/><path d="M-20,864L137,804L54,793Z" fill="transparent" stroke="#000000" fill-opacity="1" stroke-opacity="0.02"/><path d="M272,865L927,860L472,856Z" fill="transparent" stroke="#000000" fill-opacity="1" stroke-opacity="0.02"/><path d="M272,865L472,856L385,787Z" fill="transparent" stroke="#000000" fill-opacity="1" stroke-opacity="0.02"/><path d="M472,856L927,860L754,800Z" fill="transparent" stroke="#000000" fill-opacity="1" stroke-opacity="0.02"/><path d="M472,856L754,800L597,805Z" fill="transparent" stroke="#000000" fill-opacity="1" stroke-opacity="0.02"/><path d="M754,800L927,860L822,809Z" fill="transparent" stroke="#000000" fill-opacity="1" stroke-opacity="0.02"/><path d="M927,860L1624,854L1065,858Z" fill="transparent" stroke="#000000" fill-opacity="1" stroke-opacity="0.02"/><path d="M1065,858L1624,854L1386,825Z" fill="transparent" stroke="#000000" fill-opacity="1" stroke-opacity="0.02"/><path d="M1065,858L1386,825L1172,823Z" fill="transparent" stroke="#000000" fill-opacity="1" stroke-opacity="0.02"/><path d="M1172,823L1386,825L1257,797Z" fill="transparent" stroke="#000000" fill-opacity="1" stroke-opacity="0.02"/><path d="M1386,825L1624,854L1469,789Z" fill="transparent" stroke="#000000" fill-opacity="1" stroke-opacity="0.02"/></g></svg>